<mxfile host="app.diagrams.net" modified="2023-05-02T05:35:22.400Z" agent="Mozilla/5.0 (Macintosh; Intel Mac OS X 10_15_7) AppleWebKit/537.36 (KHTML, like Gecko) Chrome/112.0.0.0 Safari/537.36" version="21.2.3" etag="WSeKWmXgR-tHycOnD-qk" type="github">
  <diagram name="페이지-1" id="3hmzxrxCCbj5wruLaufF">
    <mxGraphModel>
      <root>
        <mxCell id="0" />
        <mxCell id="1" parent="0" />
      </root>
    </mxGraphModel>
  </diagram>
</mxfile>
